<svg xmlns="http://www.w3.org/2000/svg" width="25" height="25" viewBox="0 0 25 25">
    <path fill="#CFCFD1" fill-rule="nonzero" d="M9.393 10.68l5.76-9.96c-.84-.12-1.8-.24-2.64-.24-2.88 0-5.52.96-7.56 2.76l4.44 7.56v-.12zm14.52-1.8c-1.08-3.48-3.72-6.36-7.2-7.56l-4.32 7.56h11.52zm.36 1.2h-9l.36.6 5.76 9.96c1.92-2.16 3.12-5.04 3.12-8.16 0-.84-.12-1.68-.24-2.4zm-15.96 2.4l-4.68-8.16a12.306 12.306 0 0 0-3.12 8.16c0 .84.12 1.68.24 2.4h9l-1.44-2.4zm-7.2 3.6c1.08 3.48 3.72 6.36 7.2 7.56l4.44-7.56H1.113zm13.44 0l-4.68 8.16c.84.24 1.68.24 2.64.24 2.88 0 5.52-.96 7.56-2.76l-4.44-7.56-1.08 1.92z"/>
</svg>
